<mxfile host="app.diagrams.net" modified="2023-10-25T12:14:25.880Z" agent="Mozilla/5.0 (Windows NT 10.0; Win64; x64) AppleWebKit/537.36 (KHTML, like Gecko) Chrome/116.0.0.0 Safari/537.36 OPR/102.0.0.0" etag="UG-Eu1Gd0g4Av9O5Ya-e" version="22.0.8" type="github">
  <diagram id="C5RBs43oDa-KdzZeNtuy" name="Page-1">
    <mxGraphModel dx="2098" dy="1213" grid="1" gridSize="10" guides="1" tooltips="1" connect="1" arrows="1" fold="1" page="1" pageScale="1" pageWidth="827" pageHeight="1169" math="0" shadow="0">
      <root>
        <mxCell id="WIyWlLk6GJQsqaUBKTNV-0" />
        <mxCell id="WIyWlLk6GJQsqaUBKTNV-1" parent="WIyWlLk6GJQsqaUBKTNV-0" />
        <mxCell id="Sh9JLWuEMGVaoRUnbIIQ-2" value="" style="edgeStyle=orthogonalEdgeStyle;rounded=0;orthogonalLoop=1;jettySize=auto;html=1;entryX=0.5;entryY=1;entryDx=0;entryDy=0;" edge="1" parent="WIyWlLk6GJQsqaUBKTNV-1" source="Sh9JLWuEMGVaoRUnbIIQ-0" target="Sh9JLWuEMGVaoRUnbIIQ-35">
          <mxGeometry relative="1" as="geometry">
            <mxPoint x="260" y="90" as="targetPoint" />
          </mxGeometry>
        </mxCell>
        <mxCell id="Sh9JLWuEMGVaoRUnbIIQ-10" style="edgeStyle=orthogonalEdgeStyle;rounded=0;orthogonalLoop=1;jettySize=auto;html=1;exitX=0.75;exitY=0;exitDx=0;exitDy=0;entryX=0.5;entryY=1;entryDx=0;entryDy=0;" edge="1" parent="WIyWlLk6GJQsqaUBKTNV-1" source="Sh9JLWuEMGVaoRUnbIIQ-0" target="Sh9JLWuEMGVaoRUnbIIQ-36">
          <mxGeometry relative="1" as="geometry">
            <mxPoint x="330" y="90" as="targetPoint" />
          </mxGeometry>
        </mxCell>
        <mxCell id="Sh9JLWuEMGVaoRUnbIIQ-62" style="edgeStyle=orthogonalEdgeStyle;rounded=0;orthogonalLoop=1;jettySize=auto;html=1;exitX=0.25;exitY=0;exitDx=0;exitDy=0;entryX=0.5;entryY=1;entryDx=0;entryDy=0;" edge="1" parent="WIyWlLk6GJQsqaUBKTNV-1" source="Sh9JLWuEMGVaoRUnbIIQ-0" target="Sh9JLWuEMGVaoRUnbIIQ-33">
          <mxGeometry relative="1" as="geometry" />
        </mxCell>
        <mxCell id="Sh9JLWuEMGVaoRUnbIIQ-0" value="&lt;font face=&quot;Times New Roman&quot;&gt;Game&lt;/font&gt;" style="rounded=0;whiteSpace=wrap;html=1;fillColor=#cdeb8b;strokeColor=none;" vertex="1" parent="WIyWlLk6GJQsqaUBKTNV-1">
          <mxGeometry x="230" y="150" width="120" height="60" as="geometry" />
        </mxCell>
        <mxCell id="Sh9JLWuEMGVaoRUnbIIQ-15" value="" style="edgeStyle=orthogonalEdgeStyle;rounded=0;orthogonalLoop=1;jettySize=auto;html=1;entryX=0.5;entryY=1;entryDx=0;entryDy=0;" edge="1" parent="WIyWlLk6GJQsqaUBKTNV-1" source="Sh9JLWuEMGVaoRUnbIIQ-11" target="Sh9JLWuEMGVaoRUnbIIQ-37">
          <mxGeometry relative="1" as="geometry">
            <mxPoint x="610" y="100" as="targetPoint" />
          </mxGeometry>
        </mxCell>
        <mxCell id="Sh9JLWuEMGVaoRUnbIIQ-59" style="edgeStyle=orthogonalEdgeStyle;rounded=0;orthogonalLoop=1;jettySize=auto;html=1;entryX=0.5;entryY=1;entryDx=0;entryDy=0;" edge="1" parent="WIyWlLk6GJQsqaUBKTNV-1" source="Sh9JLWuEMGVaoRUnbIIQ-11" target="Sh9JLWuEMGVaoRUnbIIQ-39">
          <mxGeometry relative="1" as="geometry" />
        </mxCell>
        <mxCell id="Sh9JLWuEMGVaoRUnbIIQ-60" style="edgeStyle=orthogonalEdgeStyle;rounded=0;orthogonalLoop=1;jettySize=auto;html=1;entryX=0.5;entryY=1;entryDx=0;entryDy=0;" edge="1" parent="WIyWlLk6GJQsqaUBKTNV-1" source="Sh9JLWuEMGVaoRUnbIIQ-11" target="Sh9JLWuEMGVaoRUnbIIQ-40">
          <mxGeometry relative="1" as="geometry" />
        </mxCell>
        <mxCell id="Sh9JLWuEMGVaoRUnbIIQ-94" style="edgeStyle=orthogonalEdgeStyle;rounded=0;orthogonalLoop=1;jettySize=auto;html=1;entryX=0.5;entryY=1;entryDx=0;entryDy=0;exitX=0.5;exitY=0;exitDx=0;exitDy=0;" edge="1" parent="WIyWlLk6GJQsqaUBKTNV-1" source="Sh9JLWuEMGVaoRUnbIIQ-11" target="Sh9JLWuEMGVaoRUnbIIQ-93">
          <mxGeometry relative="1" as="geometry" />
        </mxCell>
        <mxCell id="Sh9JLWuEMGVaoRUnbIIQ-11" value="Category" style="rounded=0;whiteSpace=wrap;html=1;fillColor=#cdeb8b;strokeColor=none;" vertex="1" parent="WIyWlLk6GJQsqaUBKTNV-1">
          <mxGeometry x="540" y="150" width="120" height="60" as="geometry" />
        </mxCell>
        <mxCell id="Sh9JLWuEMGVaoRUnbIIQ-23" value="" style="endArrow=none;html=1;rounded=0;exitX=1;exitY=0.5;exitDx=0;exitDy=0;entryX=0;entryY=0.5;entryDx=0;entryDy=0;" edge="1" parent="WIyWlLk6GJQsqaUBKTNV-1" source="Sh9JLWuEMGVaoRUnbIIQ-0" target="Sh9JLWuEMGVaoRUnbIIQ-26">
          <mxGeometry width="50" height="50" relative="1" as="geometry">
            <mxPoint x="350" y="180" as="sourcePoint" />
            <mxPoint x="400" y="180" as="targetPoint" />
          </mxGeometry>
        </mxCell>
        <mxCell id="Sh9JLWuEMGVaoRUnbIIQ-24" value="N" style="text;html=1;align=center;verticalAlign=middle;resizable=0;points=[];autosize=1;strokeColor=none;fillColor=none;" vertex="1" parent="WIyWlLk6GJQsqaUBKTNV-1">
          <mxGeometry x="510" y="150" width="30" height="30" as="geometry" />
        </mxCell>
        <mxCell id="Sh9JLWuEMGVaoRUnbIIQ-26" value="has" style="rhombus;whiteSpace=wrap;html=1;fillColor=#ffff88;strokeColor=none;" vertex="1" parent="WIyWlLk6GJQsqaUBKTNV-1">
          <mxGeometry x="440" y="157.5" width="45" height="45" as="geometry" />
        </mxCell>
        <mxCell id="Sh9JLWuEMGVaoRUnbIIQ-28" value="" style="endArrow=none;html=1;rounded=0;exitX=1;exitY=0.5;exitDx=0;exitDy=0;entryX=0;entryY=0.5;entryDx=0;entryDy=0;" edge="1" parent="WIyWlLk6GJQsqaUBKTNV-1" source="Sh9JLWuEMGVaoRUnbIIQ-26" target="Sh9JLWuEMGVaoRUnbIIQ-11">
          <mxGeometry width="50" height="50" relative="1" as="geometry">
            <mxPoint x="500" y="180" as="sourcePoint" />
            <mxPoint x="570" y="180" as="targetPoint" />
          </mxGeometry>
        </mxCell>
        <mxCell id="Sh9JLWuEMGVaoRUnbIIQ-29" value="1" style="text;html=1;align=center;verticalAlign=middle;resizable=0;points=[];autosize=1;strokeColor=none;fillColor=none;" vertex="1" parent="WIyWlLk6GJQsqaUBKTNV-1">
          <mxGeometry x="350" y="150" width="30" height="30" as="geometry" />
        </mxCell>
        <mxCell id="Sh9JLWuEMGVaoRUnbIIQ-54" style="edgeStyle=orthogonalEdgeStyle;rounded=0;orthogonalLoop=1;jettySize=auto;html=1;entryX=1;entryY=0.5;entryDx=0;entryDy=0;" edge="1" parent="WIyWlLk6GJQsqaUBKTNV-1" source="Sh9JLWuEMGVaoRUnbIIQ-31" target="Sh9JLWuEMGVaoRUnbIIQ-49">
          <mxGeometry relative="1" as="geometry" />
        </mxCell>
        <mxCell id="Sh9JLWuEMGVaoRUnbIIQ-56" style="edgeStyle=orthogonalEdgeStyle;rounded=0;orthogonalLoop=1;jettySize=auto;html=1;entryX=1;entryY=0.5;entryDx=0;entryDy=0;" edge="1" parent="WIyWlLk6GJQsqaUBKTNV-1" source="Sh9JLWuEMGVaoRUnbIIQ-31" target="Sh9JLWuEMGVaoRUnbIIQ-50">
          <mxGeometry relative="1" as="geometry" />
        </mxCell>
        <mxCell id="Sh9JLWuEMGVaoRUnbIIQ-57" style="edgeStyle=orthogonalEdgeStyle;rounded=0;orthogonalLoop=1;jettySize=auto;html=1;entryX=1;entryY=0.5;entryDx=0;entryDy=0;" edge="1" parent="WIyWlLk6GJQsqaUBKTNV-1" source="Sh9JLWuEMGVaoRUnbIIQ-31" target="Sh9JLWuEMGVaoRUnbIIQ-52">
          <mxGeometry relative="1" as="geometry" />
        </mxCell>
        <mxCell id="Sh9JLWuEMGVaoRUnbIIQ-58" style="edgeStyle=orthogonalEdgeStyle;rounded=0;orthogonalLoop=1;jettySize=auto;html=1;entryX=1;entryY=0.5;entryDx=0;entryDy=0;" edge="1" parent="WIyWlLk6GJQsqaUBKTNV-1" source="Sh9JLWuEMGVaoRUnbIIQ-31" target="Sh9JLWuEMGVaoRUnbIIQ-51">
          <mxGeometry relative="1" as="geometry" />
        </mxCell>
        <mxCell id="Sh9JLWuEMGVaoRUnbIIQ-92" style="edgeStyle=orthogonalEdgeStyle;rounded=0;orthogonalLoop=1;jettySize=auto;html=1;entryX=1;entryY=0.5;entryDx=0;entryDy=0;" edge="1" parent="WIyWlLk6GJQsqaUBKTNV-1" source="Sh9JLWuEMGVaoRUnbIIQ-31" target="Sh9JLWuEMGVaoRUnbIIQ-91">
          <mxGeometry relative="1" as="geometry" />
        </mxCell>
        <mxCell id="Sh9JLWuEMGVaoRUnbIIQ-31" value="Product" style="rounded=0;whiteSpace=wrap;html=1;fillColor=#cdeb8b;strokeColor=none;" vertex="1" parent="WIyWlLk6GJQsqaUBKTNV-1">
          <mxGeometry x="707" y="270" width="120" height="60" as="geometry" />
        </mxCell>
        <mxCell id="Sh9JLWuEMGVaoRUnbIIQ-33" value="&lt;font face=&quot;Times New Roman&quot;&gt;ID&lt;/font&gt;" style="ellipse;whiteSpace=wrap;html=1;fillColor=#ffcc99;strokeColor=none;" vertex="1" parent="WIyWlLk6GJQsqaUBKTNV-1">
          <mxGeometry x="190" y="60" width="60" height="40" as="geometry" />
        </mxCell>
        <mxCell id="Sh9JLWuEMGVaoRUnbIIQ-35" value="&lt;font face=&quot;Times New Roman&quot;&gt;name&lt;/font&gt;" style="ellipse;whiteSpace=wrap;html=1;fillColor=#ffcc99;strokeColor=none;" vertex="1" parent="WIyWlLk6GJQsqaUBKTNV-1">
          <mxGeometry x="260" y="60" width="60" height="40" as="geometry" />
        </mxCell>
        <mxCell id="Sh9JLWuEMGVaoRUnbIIQ-36" value="&lt;font face=&quot;Times New Roman&quot;&gt;description&lt;/font&gt;" style="ellipse;whiteSpace=wrap;html=1;fillColor=#ffcc99;strokeColor=none;" vertex="1" parent="WIyWlLk6GJQsqaUBKTNV-1">
          <mxGeometry x="335" y="60" width="60" height="40" as="geometry" />
        </mxCell>
        <mxCell id="Sh9JLWuEMGVaoRUnbIIQ-37" value="&lt;font face=&quot;Times New Roman&quot;&gt;game_id&lt;br&gt;&lt;/font&gt;" style="ellipse;whiteSpace=wrap;html=1;fillColor=#ffcc99;strokeColor=none;" vertex="1" parent="WIyWlLk6GJQsqaUBKTNV-1">
          <mxGeometry x="480" y="50" width="60" height="40" as="geometry" />
        </mxCell>
        <mxCell id="Sh9JLWuEMGVaoRUnbIIQ-39" value="&lt;font face=&quot;Times New Roman&quot;&gt;name&lt;/font&gt;" style="ellipse;whiteSpace=wrap;html=1;fillColor=#ffcc99;strokeColor=none;" vertex="1" parent="WIyWlLk6GJQsqaUBKTNV-1">
          <mxGeometry x="550" y="50" width="60" height="40" as="geometry" />
        </mxCell>
        <mxCell id="Sh9JLWuEMGVaoRUnbIIQ-40" value="&lt;font face=&quot;Times New Roman&quot;&gt;description&lt;/font&gt;" style="ellipse;whiteSpace=wrap;html=1;fillColor=#ffcc99;strokeColor=none;" vertex="1" parent="WIyWlLk6GJQsqaUBKTNV-1">
          <mxGeometry x="630" y="50" width="60" height="40" as="geometry" />
        </mxCell>
        <mxCell id="Sh9JLWuEMGVaoRUnbIIQ-42" value="has" style="rhombus;whiteSpace=wrap;html=1;fillColor=#ffff88;strokeColor=none;" vertex="1" parent="WIyWlLk6GJQsqaUBKTNV-1">
          <mxGeometry x="744.5" y="157.5" width="45" height="45" as="geometry" />
        </mxCell>
        <mxCell id="Sh9JLWuEMGVaoRUnbIIQ-43" value="" style="endArrow=none;html=1;rounded=0;exitX=0.5;exitY=1;exitDx=0;exitDy=0;entryX=0.5;entryY=0;entryDx=0;entryDy=0;" edge="1" parent="WIyWlLk6GJQsqaUBKTNV-1" source="Sh9JLWuEMGVaoRUnbIIQ-42" target="Sh9JLWuEMGVaoRUnbIIQ-31">
          <mxGeometry width="50" height="50" relative="1" as="geometry">
            <mxPoint x="495" y="260" as="sourcePoint" />
            <mxPoint x="660" y="340" as="targetPoint" />
          </mxGeometry>
        </mxCell>
        <mxCell id="Sh9JLWuEMGVaoRUnbIIQ-44" value="" style="endArrow=none;html=1;rounded=0;exitX=1;exitY=0.5;exitDx=0;exitDy=0;entryX=0;entryY=0.5;entryDx=0;entryDy=0;" edge="1" parent="WIyWlLk6GJQsqaUBKTNV-1" source="Sh9JLWuEMGVaoRUnbIIQ-11" target="Sh9JLWuEMGVaoRUnbIIQ-42">
          <mxGeometry width="50" height="50" relative="1" as="geometry">
            <mxPoint x="680" y="180" as="sourcePoint" />
            <mxPoint x="767" y="165" as="targetPoint" />
          </mxGeometry>
        </mxCell>
        <mxCell id="Sh9JLWuEMGVaoRUnbIIQ-45" value="1" style="text;html=1;align=center;verticalAlign=middle;resizable=0;points=[];autosize=1;strokeColor=none;fillColor=none;" vertex="1" parent="WIyWlLk6GJQsqaUBKTNV-1">
          <mxGeometry x="660" y="150" width="30" height="30" as="geometry" />
        </mxCell>
        <mxCell id="Sh9JLWuEMGVaoRUnbIIQ-46" value="N" style="text;html=1;align=center;verticalAlign=middle;resizable=0;points=[];autosize=1;strokeColor=none;fillColor=none;" vertex="1" parent="WIyWlLk6GJQsqaUBKTNV-1">
          <mxGeometry x="740" y="240" width="30" height="30" as="geometry" />
        </mxCell>
        <mxCell id="Sh9JLWuEMGVaoRUnbIIQ-49" value="&lt;font face=&quot;Times New Roman&quot;&gt;status&lt;br&gt;&lt;/font&gt;" style="ellipse;whiteSpace=wrap;html=1;fillColor=#ffcc99;strokeColor=none;" vertex="1" parent="WIyWlLk6GJQsqaUBKTNV-1">
          <mxGeometry x="555" y="380" width="60" height="40" as="geometry" />
        </mxCell>
        <mxCell id="Sh9JLWuEMGVaoRUnbIIQ-50" value="&lt;font face=&quot;Times New Roman&quot;&gt;category_id&lt;/font&gt;" style="ellipse;whiteSpace=wrap;html=1;fillColor=#ffcc99;strokeColor=none;" vertex="1" parent="WIyWlLk6GJQsqaUBKTNV-1">
          <mxGeometry x="555" y="330" width="60" height="40" as="geometry" />
        </mxCell>
        <mxCell id="Sh9JLWuEMGVaoRUnbIIQ-51" value="&lt;font face=&quot;Times New Roman&quot;&gt;name&lt;/font&gt;" style="ellipse;whiteSpace=wrap;html=1;fillColor=#ffcc99;strokeColor=none;" vertex="1" parent="WIyWlLk6GJQsqaUBKTNV-1">
          <mxGeometry x="555" y="230" width="60" height="40" as="geometry" />
        </mxCell>
        <mxCell id="Sh9JLWuEMGVaoRUnbIIQ-52" value="&lt;font face=&quot;Times New Roman&quot;&gt;description&lt;/font&gt;" style="ellipse;whiteSpace=wrap;html=1;fillColor=#ffcc99;strokeColor=none;" vertex="1" parent="WIyWlLk6GJQsqaUBKTNV-1">
          <mxGeometry x="555" y="280" width="60" height="40" as="geometry" />
        </mxCell>
        <mxCell id="Sh9JLWuEMGVaoRUnbIIQ-71" style="edgeStyle=orthogonalEdgeStyle;rounded=0;orthogonalLoop=1;jettySize=auto;html=1;entryX=0.5;entryY=1;entryDx=0;entryDy=0;" edge="1" parent="WIyWlLk6GJQsqaUBKTNV-1" source="Sh9JLWuEMGVaoRUnbIIQ-63" target="Sh9JLWuEMGVaoRUnbIIQ-68">
          <mxGeometry relative="1" as="geometry" />
        </mxCell>
        <mxCell id="Sh9JLWuEMGVaoRUnbIIQ-72" style="edgeStyle=orthogonalEdgeStyle;rounded=0;orthogonalLoop=1;jettySize=auto;html=1;entryX=0.5;entryY=1;entryDx=0;entryDy=0;" edge="1" parent="WIyWlLk6GJQsqaUBKTNV-1" source="Sh9JLWuEMGVaoRUnbIIQ-63" target="Sh9JLWuEMGVaoRUnbIIQ-69">
          <mxGeometry relative="1" as="geometry" />
        </mxCell>
        <mxCell id="Sh9JLWuEMGVaoRUnbIIQ-74" style="edgeStyle=orthogonalEdgeStyle;rounded=0;orthogonalLoop=1;jettySize=auto;html=1;entryX=0.5;entryY=1;entryDx=0;entryDy=0;exitX=0.5;exitY=0;exitDx=0;exitDy=0;" edge="1" parent="WIyWlLk6GJQsqaUBKTNV-1" source="Sh9JLWuEMGVaoRUnbIIQ-63" target="Sh9JLWuEMGVaoRUnbIIQ-70">
          <mxGeometry relative="1" as="geometry" />
        </mxCell>
        <mxCell id="Sh9JLWuEMGVaoRUnbIIQ-63" value="&lt;font face=&quot;Times New Roman&quot;&gt;Server Type&lt;br&gt;&lt;/font&gt;" style="rounded=0;whiteSpace=wrap;html=1;fillColor=#cdeb8b;strokeColor=none;" vertex="1" parent="WIyWlLk6GJQsqaUBKTNV-1">
          <mxGeometry x="10" y="90" width="120" height="60" as="geometry" />
        </mxCell>
        <mxCell id="Sh9JLWuEMGVaoRUnbIIQ-65" value="" style="endArrow=none;html=1;rounded=0;entryX=0.5;entryY=0;entryDx=0;entryDy=0;" edge="1" parent="WIyWlLk6GJQsqaUBKTNV-1" target="Sh9JLWuEMGVaoRUnbIIQ-75">
          <mxGeometry width="50" height="50" relative="1" as="geometry">
            <mxPoint x="128" y="150" as="sourcePoint" />
            <mxPoint x="180" y="120" as="targetPoint" />
          </mxGeometry>
        </mxCell>
        <mxCell id="Sh9JLWuEMGVaoRUnbIIQ-66" value="" style="endArrow=none;html=1;rounded=0;exitX=0.5;exitY=1;exitDx=0;exitDy=0;entryX=0.5;entryY=1;entryDx=0;entryDy=0;" edge="1" parent="WIyWlLk6GJQsqaUBKTNV-1" source="Sh9JLWuEMGVaoRUnbIIQ-75" target="Sh9JLWuEMGVaoRUnbIIQ-0">
          <mxGeometry width="50" height="50" relative="1" as="geometry">
            <mxPoint x="180" y="180" as="sourcePoint" />
            <mxPoint x="290" y="260" as="targetPoint" />
            <Array as="points">
              <mxPoint x="290" y="255" />
            </Array>
          </mxGeometry>
        </mxCell>
        <mxCell id="Sh9JLWuEMGVaoRUnbIIQ-68" value="&lt;font face=&quot;Times New Roman&quot;&gt;ID&lt;/font&gt;" style="ellipse;whiteSpace=wrap;html=1;fillColor=#ffcc99;strokeColor=none;" vertex="1" parent="WIyWlLk6GJQsqaUBKTNV-1">
          <mxGeometry x="10" y="10" width="60" height="40" as="geometry" />
        </mxCell>
        <mxCell id="Sh9JLWuEMGVaoRUnbIIQ-69" value="&lt;font face=&quot;Times New Roman&quot;&gt;name&lt;/font&gt;" style="ellipse;whiteSpace=wrap;html=1;fillColor=#ffcc99;strokeColor=none;" vertex="1" parent="WIyWlLk6GJQsqaUBKTNV-1">
          <mxGeometry x="80" y="10" width="60" height="40" as="geometry" />
        </mxCell>
        <mxCell id="Sh9JLWuEMGVaoRUnbIIQ-70" value="&lt;font face=&quot;Times New Roman&quot;&gt;game_id&lt;/font&gt;" style="ellipse;whiteSpace=wrap;html=1;fillColor=#ffcc99;strokeColor=none;" vertex="1" parent="WIyWlLk6GJQsqaUBKTNV-1">
          <mxGeometry x="150" y="10" width="60" height="40" as="geometry" />
        </mxCell>
        <mxCell id="Sh9JLWuEMGVaoRUnbIIQ-75" value="has" style="rhombus;whiteSpace=wrap;html=1;fillColor=#ffff88;strokeColor=none;" vertex="1" parent="WIyWlLk6GJQsqaUBKTNV-1">
          <mxGeometry x="105" y="210" width="45" height="45" as="geometry" />
        </mxCell>
        <mxCell id="Sh9JLWuEMGVaoRUnbIIQ-76" value="1" style="text;html=1;align=center;verticalAlign=middle;resizable=0;points=[];autosize=1;strokeColor=none;fillColor=none;" vertex="1" parent="WIyWlLk6GJQsqaUBKTNV-1">
          <mxGeometry x="260" y="210" width="30" height="30" as="geometry" />
        </mxCell>
        <mxCell id="Sh9JLWuEMGVaoRUnbIIQ-77" value="1" style="text;html=1;align=center;verticalAlign=middle;resizable=0;points=[];autosize=1;strokeColor=none;fillColor=none;" vertex="1" parent="WIyWlLk6GJQsqaUBKTNV-1">
          <mxGeometry x="40" y="150" width="30" height="30" as="geometry" />
        </mxCell>
        <mxCell id="Sh9JLWuEMGVaoRUnbIIQ-78" value="" style="endArrow=none;html=1;rounded=0;exitX=0.5;exitY=1;exitDx=0;exitDy=0;" edge="1" parent="WIyWlLk6GJQsqaUBKTNV-1" source="Sh9JLWuEMGVaoRUnbIIQ-63">
          <mxGeometry width="50" height="50" relative="1" as="geometry">
            <mxPoint x="69.17" y="200" as="sourcePoint" />
            <mxPoint x="70" y="240" as="targetPoint" />
          </mxGeometry>
        </mxCell>
        <mxCell id="Sh9JLWuEMGVaoRUnbIIQ-80" value="has" style="rhombus;whiteSpace=wrap;html=1;fillColor=#ffff88;strokeColor=none;" vertex="1" parent="WIyWlLk6GJQsqaUBKTNV-1">
          <mxGeometry x="47.5" y="240" width="45" height="45" as="geometry" />
        </mxCell>
        <mxCell id="Sh9JLWuEMGVaoRUnbIIQ-81" value="" style="endArrow=none;html=1;rounded=0;exitX=0.5;exitY=1;exitDx=0;exitDy=0;entryX=0.5;entryY=0;entryDx=0;entryDy=0;" edge="1" parent="WIyWlLk6GJQsqaUBKTNV-1" target="Sh9JLWuEMGVaoRUnbIIQ-82">
          <mxGeometry width="50" height="50" relative="1" as="geometry">
            <mxPoint x="70" y="285" as="sourcePoint" />
            <mxPoint x="70" y="375" as="targetPoint" />
          </mxGeometry>
        </mxCell>
        <mxCell id="Sh9JLWuEMGVaoRUnbIIQ-88" style="edgeStyle=orthogonalEdgeStyle;rounded=0;orthogonalLoop=1;jettySize=auto;html=1;entryX=0;entryY=0.5;entryDx=0;entryDy=0;" edge="1" parent="WIyWlLk6GJQsqaUBKTNV-1" source="Sh9JLWuEMGVaoRUnbIIQ-82" target="Sh9JLWuEMGVaoRUnbIIQ-85">
          <mxGeometry relative="1" as="geometry" />
        </mxCell>
        <mxCell id="Sh9JLWuEMGVaoRUnbIIQ-89" style="edgeStyle=orthogonalEdgeStyle;rounded=0;orthogonalLoop=1;jettySize=auto;html=1;entryX=0;entryY=0.5;entryDx=0;entryDy=0;" edge="1" parent="WIyWlLk6GJQsqaUBKTNV-1" source="Sh9JLWuEMGVaoRUnbIIQ-82" target="Sh9JLWuEMGVaoRUnbIIQ-84">
          <mxGeometry relative="1" as="geometry" />
        </mxCell>
        <mxCell id="Sh9JLWuEMGVaoRUnbIIQ-90" style="edgeStyle=orthogonalEdgeStyle;rounded=0;orthogonalLoop=1;jettySize=auto;html=1;entryX=0;entryY=0.5;entryDx=0;entryDy=0;" edge="1" parent="WIyWlLk6GJQsqaUBKTNV-1" source="Sh9JLWuEMGVaoRUnbIIQ-82" target="Sh9JLWuEMGVaoRUnbIIQ-86">
          <mxGeometry relative="1" as="geometry" />
        </mxCell>
        <mxCell id="Sh9JLWuEMGVaoRUnbIIQ-82" value="&lt;font face=&quot;Times New Roman&quot;&gt;Server&lt;br&gt;&lt;/font&gt;" style="rounded=0;whiteSpace=wrap;html=1;fillColor=#cdeb8b;strokeColor=none;" vertex="1" parent="WIyWlLk6GJQsqaUBKTNV-1">
          <mxGeometry x="10" y="380" width="120" height="60" as="geometry" />
        </mxCell>
        <mxCell id="Sh9JLWuEMGVaoRUnbIIQ-83" value="N" style="text;html=1;align=center;verticalAlign=middle;resizable=0;points=[];autosize=1;strokeColor=none;fillColor=none;" vertex="1" parent="WIyWlLk6GJQsqaUBKTNV-1">
          <mxGeometry x="40" y="350" width="30" height="30" as="geometry" />
        </mxCell>
        <mxCell id="Sh9JLWuEMGVaoRUnbIIQ-84" value="&lt;font face=&quot;Times New Roman&quot;&gt;ID&lt;/font&gt;" style="ellipse;whiteSpace=wrap;html=1;fillColor=#ffcc99;strokeColor=none;" vertex="1" parent="WIyWlLk6GJQsqaUBKTNV-1">
          <mxGeometry x="175" y="390" width="60" height="40" as="geometry" />
        </mxCell>
        <mxCell id="Sh9JLWuEMGVaoRUnbIIQ-85" value="&lt;font face=&quot;Times New Roman&quot;&gt;name&lt;/font&gt;" style="ellipse;whiteSpace=wrap;html=1;fillColor=#ffcc99;strokeColor=none;" vertex="1" parent="WIyWlLk6GJQsqaUBKTNV-1">
          <mxGeometry x="175" y="330" width="60" height="40" as="geometry" />
        </mxCell>
        <mxCell id="Sh9JLWuEMGVaoRUnbIIQ-86" value="&lt;font face=&quot;Times New Roman&quot;&gt;server_type_id&lt;/font&gt;" style="ellipse;whiteSpace=wrap;html=1;fillColor=#ffcc99;strokeColor=none;" vertex="1" parent="WIyWlLk6GJQsqaUBKTNV-1">
          <mxGeometry x="175" y="450" width="90" height="40" as="geometry" />
        </mxCell>
        <mxCell id="Sh9JLWuEMGVaoRUnbIIQ-91" value="&lt;font face=&quot;Times New Roman&quot;&gt;ID&lt;br&gt;&lt;/font&gt;" style="ellipse;whiteSpace=wrap;html=1;fillColor=#ffcc99;strokeColor=none;" vertex="1" parent="WIyWlLk6GJQsqaUBKTNV-1">
          <mxGeometry x="555" y="430" width="60" height="40" as="geometry" />
        </mxCell>
        <mxCell id="Sh9JLWuEMGVaoRUnbIIQ-93" value="&lt;font face=&quot;Times New Roman&quot;&gt;ID&lt;/font&gt;" style="ellipse;whiteSpace=wrap;html=1;fillColor=#ffcc99;strokeColor=none;" vertex="1" parent="WIyWlLk6GJQsqaUBKTNV-1">
          <mxGeometry x="707" y="50" width="60" height="40" as="geometry" />
        </mxCell>
        <mxCell id="Sh9JLWuEMGVaoRUnbIIQ-96" value="" style="endArrow=none;html=1;rounded=0;exitX=0.5;exitY=1;exitDx=0;exitDy=0;entryX=0.5;entryY=0;entryDx=0;entryDy=0;" edge="1" parent="WIyWlLk6GJQsqaUBKTNV-1" source="Sh9JLWuEMGVaoRUnbIIQ-82" target="Sh9JLWuEMGVaoRUnbIIQ-97">
          <mxGeometry width="50" height="50" relative="1" as="geometry">
            <mxPoint x="70" y="460" as="sourcePoint" />
            <mxPoint x="70" y="540" as="targetPoint" />
          </mxGeometry>
        </mxCell>
        <mxCell id="Sh9JLWuEMGVaoRUnbIIQ-97" value="has" style="rhombus;whiteSpace=wrap;html=1;fillColor=#ffff88;strokeColor=none;" vertex="1" parent="WIyWlLk6GJQsqaUBKTNV-1">
          <mxGeometry x="47.5" y="510" width="45" height="45" as="geometry" />
        </mxCell>
        <mxCell id="Sh9JLWuEMGVaoRUnbIIQ-98" value="" style="endArrow=none;html=1;rounded=0;exitX=0.5;exitY=1;exitDx=0;exitDy=0;entryX=0.5;entryY=0;entryDx=0;entryDy=0;" edge="1" parent="WIyWlLk6GJQsqaUBKTNV-1" source="Sh9JLWuEMGVaoRUnbIIQ-97" target="Sh9JLWuEMGVaoRUnbIIQ-99">
          <mxGeometry width="50" height="50" relative="1" as="geometry">
            <mxPoint x="68.95" y="600" as="sourcePoint" />
            <mxPoint x="69" y="640" as="targetPoint" />
          </mxGeometry>
        </mxCell>
        <mxCell id="Sh9JLWuEMGVaoRUnbIIQ-110" style="edgeStyle=orthogonalEdgeStyle;rounded=0;orthogonalLoop=1;jettySize=auto;html=1;entryX=0;entryY=0.5;entryDx=0;entryDy=0;" edge="1" parent="WIyWlLk6GJQsqaUBKTNV-1" source="Sh9JLWuEMGVaoRUnbIIQ-99" target="Sh9JLWuEMGVaoRUnbIIQ-107">
          <mxGeometry relative="1" as="geometry" />
        </mxCell>
        <mxCell id="Sh9JLWuEMGVaoRUnbIIQ-111" style="edgeStyle=orthogonalEdgeStyle;rounded=0;orthogonalLoop=1;jettySize=auto;html=1;entryX=0;entryY=0.5;entryDx=0;entryDy=0;" edge="1" parent="WIyWlLk6GJQsqaUBKTNV-1" source="Sh9JLWuEMGVaoRUnbIIQ-99" target="Sh9JLWuEMGVaoRUnbIIQ-106">
          <mxGeometry relative="1" as="geometry" />
        </mxCell>
        <mxCell id="Sh9JLWuEMGVaoRUnbIIQ-112" style="edgeStyle=orthogonalEdgeStyle;rounded=0;orthogonalLoop=1;jettySize=auto;html=1;exitX=1;exitY=0.5;exitDx=0;exitDy=0;entryX=0;entryY=0.5;entryDx=0;entryDy=0;" edge="1" parent="WIyWlLk6GJQsqaUBKTNV-1" source="Sh9JLWuEMGVaoRUnbIIQ-99" target="Sh9JLWuEMGVaoRUnbIIQ-108">
          <mxGeometry relative="1" as="geometry" />
        </mxCell>
        <mxCell id="Sh9JLWuEMGVaoRUnbIIQ-113" style="edgeStyle=orthogonalEdgeStyle;rounded=0;orthogonalLoop=1;jettySize=auto;html=1;exitX=1;exitY=0.5;exitDx=0;exitDy=0;entryX=0;entryY=0.5;entryDx=0;entryDy=0;" edge="1" parent="WIyWlLk6GJQsqaUBKTNV-1" source="Sh9JLWuEMGVaoRUnbIIQ-99" target="Sh9JLWuEMGVaoRUnbIIQ-109">
          <mxGeometry relative="1" as="geometry" />
        </mxCell>
        <mxCell id="Sh9JLWuEMGVaoRUnbIIQ-114" style="edgeStyle=orthogonalEdgeStyle;rounded=0;orthogonalLoop=1;jettySize=auto;html=1;entryX=0;entryY=0.5;entryDx=0;entryDy=0;" edge="1" parent="WIyWlLk6GJQsqaUBKTNV-1" source="Sh9JLWuEMGVaoRUnbIIQ-99" target="Sh9JLWuEMGVaoRUnbIIQ-105">
          <mxGeometry relative="1" as="geometry" />
        </mxCell>
        <mxCell id="Sh9JLWuEMGVaoRUnbIIQ-115" style="edgeStyle=orthogonalEdgeStyle;rounded=0;orthogonalLoop=1;jettySize=auto;html=1;entryX=0;entryY=0.5;entryDx=0;entryDy=0;" edge="1" parent="WIyWlLk6GJQsqaUBKTNV-1" source="Sh9JLWuEMGVaoRUnbIIQ-99" target="Sh9JLWuEMGVaoRUnbIIQ-104">
          <mxGeometry relative="1" as="geometry" />
        </mxCell>
        <mxCell id="Sh9JLWuEMGVaoRUnbIIQ-99" value="&lt;font face=&quot;Times New Roman&quot;&gt;Variant&lt;br&gt;&lt;/font&gt;" style="rounded=0;whiteSpace=wrap;html=1;fillColor=#cdeb8b;strokeColor=none;" vertex="1" parent="WIyWlLk6GJQsqaUBKTNV-1">
          <mxGeometry x="10" y="920" width="120" height="60" as="geometry" />
        </mxCell>
        <mxCell id="Sh9JLWuEMGVaoRUnbIIQ-100" value="" style="endArrow=none;html=1;rounded=0;exitX=0.5;exitY=1;exitDx=0;exitDy=0;entryX=0.5;entryY=0;entryDx=0;entryDy=0;" edge="1" parent="WIyWlLk6GJQsqaUBKTNV-1" source="Sh9JLWuEMGVaoRUnbIIQ-99" target="Sh9JLWuEMGVaoRUnbIIQ-101">
          <mxGeometry width="50" height="50" relative="1" as="geometry">
            <mxPoint x="70" y="730" as="sourcePoint" />
            <mxPoint x="70" y="795" as="targetPoint" />
          </mxGeometry>
        </mxCell>
        <mxCell id="Sh9JLWuEMGVaoRUnbIIQ-101" value="has" style="rhombus;whiteSpace=wrap;html=1;fillColor=#ffff88;strokeColor=none;" vertex="1" parent="WIyWlLk6GJQsqaUBKTNV-1">
          <mxGeometry x="47.5" y="1100" width="45" height="45" as="geometry" />
        </mxCell>
        <mxCell id="Sh9JLWuEMGVaoRUnbIIQ-102" value="" style="endArrow=none;html=1;rounded=0;entryX=1;entryY=0.5;entryDx=0;entryDy=0;exitX=0.5;exitY=1;exitDx=0;exitDy=0;" edge="1" parent="WIyWlLk6GJQsqaUBKTNV-1" source="Sh9JLWuEMGVaoRUnbIIQ-31" target="Sh9JLWuEMGVaoRUnbIIQ-101">
          <mxGeometry width="50" height="50" relative="1" as="geometry">
            <mxPoint x="740" y="530" as="sourcePoint" />
            <mxPoint x="160" y="880" as="targetPoint" />
            <Array as="points">
              <mxPoint x="760" y="1122" />
            </Array>
          </mxGeometry>
        </mxCell>
        <mxCell id="Sh9JLWuEMGVaoRUnbIIQ-104" value="&lt;font face=&quot;Times New Roman&quot;&gt;ID&lt;/font&gt;" style="ellipse;whiteSpace=wrap;html=1;fillColor=#ffcc99;strokeColor=none;" vertex="1" parent="WIyWlLk6GJQsqaUBKTNV-1">
          <mxGeometry x="190" y="780" width="60" height="40" as="geometry" />
        </mxCell>
        <mxCell id="Sh9JLWuEMGVaoRUnbIIQ-105" value="&lt;font face=&quot;Times New Roman&quot;&gt;name&lt;/font&gt;" style="ellipse;whiteSpace=wrap;html=1;fillColor=#ffcc99;strokeColor=none;" vertex="1" parent="WIyWlLk6GJQsqaUBKTNV-1">
          <mxGeometry x="190" y="830" width="60" height="40" as="geometry" />
        </mxCell>
        <mxCell id="Sh9JLWuEMGVaoRUnbIIQ-106" value="&lt;font face=&quot;Times New Roman&quot;&gt;stock_quantity&lt;/font&gt;" style="ellipse;whiteSpace=wrap;html=1;fillColor=#ffcc99;strokeColor=none;" vertex="1" parent="WIyWlLk6GJQsqaUBKTNV-1">
          <mxGeometry x="190" y="880" width="80" height="40" as="geometry" />
        </mxCell>
        <mxCell id="Sh9JLWuEMGVaoRUnbIIQ-107" value="&lt;font face=&quot;Times New Roman&quot;&gt;price&lt;/font&gt;" style="ellipse;whiteSpace=wrap;html=1;fillColor=#ffcc99;strokeColor=none;" vertex="1" parent="WIyWlLk6GJQsqaUBKTNV-1">
          <mxGeometry x="190" y="930" width="60" height="40" as="geometry" />
        </mxCell>
        <mxCell id="Sh9JLWuEMGVaoRUnbIIQ-108" value="&lt;font face=&quot;Times New Roman&quot;&gt;server_id&lt;/font&gt;" style="ellipse;whiteSpace=wrap;html=1;fillColor=#ffcc99;strokeColor=none;" vertex="1" parent="WIyWlLk6GJQsqaUBKTNV-1">
          <mxGeometry x="190" y="980" width="60" height="40" as="geometry" />
        </mxCell>
        <mxCell id="Sh9JLWuEMGVaoRUnbIIQ-109" value="&lt;font face=&quot;Times New Roman&quot;&gt;product_id&lt;/font&gt;" style="ellipse;whiteSpace=wrap;html=1;fillColor=#ffcc99;strokeColor=none;" vertex="1" parent="WIyWlLk6GJQsqaUBKTNV-1">
          <mxGeometry x="190" y="1030" width="60" height="40" as="geometry" />
        </mxCell>
        <mxCell id="Sh9JLWuEMGVaoRUnbIIQ-140" style="edgeStyle=orthogonalEdgeStyle;rounded=0;orthogonalLoop=1;jettySize=auto;html=1;entryX=0.5;entryY=0;entryDx=0;entryDy=0;" edge="1" parent="WIyWlLk6GJQsqaUBKTNV-1" source="Sh9JLWuEMGVaoRUnbIIQ-116" target="Sh9JLWuEMGVaoRUnbIIQ-136">
          <mxGeometry relative="1" as="geometry" />
        </mxCell>
        <mxCell id="Sh9JLWuEMGVaoRUnbIIQ-141" style="edgeStyle=orthogonalEdgeStyle;rounded=0;orthogonalLoop=1;jettySize=auto;html=1;entryX=0.5;entryY=0;entryDx=0;entryDy=0;" edge="1" parent="WIyWlLk6GJQsqaUBKTNV-1" source="Sh9JLWuEMGVaoRUnbIIQ-116" target="Sh9JLWuEMGVaoRUnbIIQ-137">
          <mxGeometry relative="1" as="geometry" />
        </mxCell>
        <mxCell id="Sh9JLWuEMGVaoRUnbIIQ-142" style="edgeStyle=orthogonalEdgeStyle;rounded=0;orthogonalLoop=1;jettySize=auto;html=1;exitX=1;exitY=0.5;exitDx=0;exitDy=0;entryX=0.5;entryY=0;entryDx=0;entryDy=0;" edge="1" parent="WIyWlLk6GJQsqaUBKTNV-1" source="Sh9JLWuEMGVaoRUnbIIQ-116" target="Sh9JLWuEMGVaoRUnbIIQ-138">
          <mxGeometry relative="1" as="geometry" />
        </mxCell>
        <mxCell id="Sh9JLWuEMGVaoRUnbIIQ-143" style="edgeStyle=orthogonalEdgeStyle;rounded=0;orthogonalLoop=1;jettySize=auto;html=1;entryX=0.5;entryY=0;entryDx=0;entryDy=0;" edge="1" parent="WIyWlLk6GJQsqaUBKTNV-1" source="Sh9JLWuEMGVaoRUnbIIQ-116" target="Sh9JLWuEMGVaoRUnbIIQ-139">
          <mxGeometry relative="1" as="geometry" />
        </mxCell>
        <mxCell id="Sh9JLWuEMGVaoRUnbIIQ-116" value="&lt;font face=&quot;Times New Roman&quot;&gt;Order Item&lt;br&gt;&lt;/font&gt;" style="rounded=0;whiteSpace=wrap;html=1;fillColor=#cdeb8b;strokeColor=none;" vertex="1" parent="WIyWlLk6GJQsqaUBKTNV-1">
          <mxGeometry x="190" y="690" width="120" height="60" as="geometry" />
        </mxCell>
        <mxCell id="Sh9JLWuEMGVaoRUnbIIQ-118" value="1" style="text;html=1;align=center;verticalAlign=middle;resizable=0;points=[];autosize=1;strokeColor=none;fillColor=none;" vertex="1" parent="WIyWlLk6GJQsqaUBKTNV-1">
          <mxGeometry x="70" y="980" width="30" height="30" as="geometry" />
        </mxCell>
        <mxCell id="Sh9JLWuEMGVaoRUnbIIQ-119" value="1" style="text;html=1;align=center;verticalAlign=middle;resizable=0;points=[];autosize=1;strokeColor=none;fillColor=none;" vertex="1" parent="WIyWlLk6GJQsqaUBKTNV-1">
          <mxGeometry x="737" y="330" width="30" height="30" as="geometry" />
        </mxCell>
        <mxCell id="Sh9JLWuEMGVaoRUnbIIQ-120" value="has" style="rhombus;whiteSpace=wrap;html=1;fillColor=#ffff88;strokeColor=none;" vertex="1" parent="WIyWlLk6GJQsqaUBKTNV-1">
          <mxGeometry x="80" y="697.5" width="45" height="45" as="geometry" />
        </mxCell>
        <mxCell id="Sh9JLWuEMGVaoRUnbIIQ-121" value="" style="endArrow=none;html=1;rounded=0;exitX=0.5;exitY=1;exitDx=0;exitDy=0;entryX=0.75;entryY=0;entryDx=0;entryDy=0;" edge="1" parent="WIyWlLk6GJQsqaUBKTNV-1" source="Sh9JLWuEMGVaoRUnbIIQ-120" target="Sh9JLWuEMGVaoRUnbIIQ-99">
          <mxGeometry width="50" height="50" relative="1" as="geometry">
            <mxPoint x="80" y="565" as="sourcePoint" />
            <mxPoint x="80" y="930" as="targetPoint" />
          </mxGeometry>
        </mxCell>
        <mxCell id="Sh9JLWuEMGVaoRUnbIIQ-122" value="" style="endArrow=none;html=1;rounded=0;exitX=0;exitY=0.5;exitDx=0;exitDy=0;entryX=1;entryY=0.5;entryDx=0;entryDy=0;" edge="1" parent="WIyWlLk6GJQsqaUBKTNV-1" source="Sh9JLWuEMGVaoRUnbIIQ-116" target="Sh9JLWuEMGVaoRUnbIIQ-120">
          <mxGeometry width="50" height="50" relative="1" as="geometry">
            <mxPoint x="113" y="753" as="sourcePoint" />
            <mxPoint x="110" y="930" as="targetPoint" />
          </mxGeometry>
        </mxCell>
        <mxCell id="Sh9JLWuEMGVaoRUnbIIQ-123" value="1" style="text;html=1;align=center;verticalAlign=middle;resizable=0;points=[];autosize=1;strokeColor=none;fillColor=none;" vertex="1" parent="WIyWlLk6GJQsqaUBKTNV-1">
          <mxGeometry x="100" y="890" width="30" height="30" as="geometry" />
        </mxCell>
        <mxCell id="Sh9JLWuEMGVaoRUnbIIQ-124" value="N" style="text;html=1;align=center;verticalAlign=middle;resizable=0;points=[];autosize=1;strokeColor=none;fillColor=none;" vertex="1" parent="WIyWlLk6GJQsqaUBKTNV-1">
          <mxGeometry x="160" y="720" width="30" height="30" as="geometry" />
        </mxCell>
        <mxCell id="Sh9JLWuEMGVaoRUnbIIQ-125" value="" style="endArrow=none;html=1;rounded=0;exitX=0.5;exitY=0;exitDx=0;exitDy=0;entryX=0.5;entryY=1;entryDx=0;entryDy=0;" edge="1" parent="WIyWlLk6GJQsqaUBKTNV-1" source="Sh9JLWuEMGVaoRUnbIIQ-116" target="Sh9JLWuEMGVaoRUnbIIQ-127">
          <mxGeometry width="50" height="50" relative="1" as="geometry">
            <mxPoint x="595" y="710" as="sourcePoint" />
            <mxPoint x="530" y="710" as="targetPoint" />
          </mxGeometry>
        </mxCell>
        <mxCell id="Sh9JLWuEMGVaoRUnbIIQ-133" style="edgeStyle=orthogonalEdgeStyle;rounded=0;orthogonalLoop=1;jettySize=auto;html=1;exitX=0;exitY=0.5;exitDx=0;exitDy=0;entryX=1;entryY=0.5;entryDx=0;entryDy=0;" edge="1" parent="WIyWlLk6GJQsqaUBKTNV-1" source="Sh9JLWuEMGVaoRUnbIIQ-126" target="Sh9JLWuEMGVaoRUnbIIQ-132">
          <mxGeometry relative="1" as="geometry" />
        </mxCell>
        <mxCell id="Sh9JLWuEMGVaoRUnbIIQ-134" style="edgeStyle=orthogonalEdgeStyle;rounded=0;orthogonalLoop=1;jettySize=auto;html=1;entryX=1;entryY=0.5;entryDx=0;entryDy=0;" edge="1" parent="WIyWlLk6GJQsqaUBKTNV-1" source="Sh9JLWuEMGVaoRUnbIIQ-126" target="Sh9JLWuEMGVaoRUnbIIQ-131">
          <mxGeometry relative="1" as="geometry">
            <Array as="points">
              <mxPoint x="180" y="540" />
              <mxPoint x="180" y="590" />
            </Array>
          </mxGeometry>
        </mxCell>
        <mxCell id="Sh9JLWuEMGVaoRUnbIIQ-135" style="edgeStyle=orthogonalEdgeStyle;rounded=0;orthogonalLoop=1;jettySize=auto;html=1;entryX=1;entryY=0.5;entryDx=0;entryDy=0;" edge="1" parent="WIyWlLk6GJQsqaUBKTNV-1" source="Sh9JLWuEMGVaoRUnbIIQ-126" target="Sh9JLWuEMGVaoRUnbIIQ-130">
          <mxGeometry relative="1" as="geometry">
            <Array as="points">
              <mxPoint x="180" y="540" />
              <mxPoint x="180" y="635" />
            </Array>
          </mxGeometry>
        </mxCell>
        <mxCell id="Sh9JLWuEMGVaoRUnbIIQ-126" value="&lt;font face=&quot;Times New Roman&quot;&gt;Order&lt;br&gt;&lt;/font&gt;" style="rounded=0;whiteSpace=wrap;html=1;fillColor=#cdeb8b;strokeColor=none;" vertex="1" parent="WIyWlLk6GJQsqaUBKTNV-1">
          <mxGeometry x="190" y="510" width="120" height="60" as="geometry" />
        </mxCell>
        <mxCell id="Sh9JLWuEMGVaoRUnbIIQ-127" value="has" style="rhombus;whiteSpace=wrap;html=1;fillColor=#ffff88;strokeColor=none;" vertex="1" parent="WIyWlLk6GJQsqaUBKTNV-1">
          <mxGeometry x="227.5" y="610" width="45" height="45" as="geometry" />
        </mxCell>
        <mxCell id="Sh9JLWuEMGVaoRUnbIIQ-129" value="" style="endArrow=none;html=1;rounded=0;exitX=0.5;exitY=0;exitDx=0;exitDy=0;entryX=0.5;entryY=1;entryDx=0;entryDy=0;" edge="1" parent="WIyWlLk6GJQsqaUBKTNV-1" source="Sh9JLWuEMGVaoRUnbIIQ-127" target="Sh9JLWuEMGVaoRUnbIIQ-126">
          <mxGeometry width="50" height="50" relative="1" as="geometry">
            <mxPoint x="260" y="700" as="sourcePoint" />
            <mxPoint x="260" y="665" as="targetPoint" />
          </mxGeometry>
        </mxCell>
        <mxCell id="Sh9JLWuEMGVaoRUnbIIQ-130" value="&lt;font face=&quot;Times New Roman&quot;&gt;price&lt;br&gt;&lt;/font&gt;" style="ellipse;whiteSpace=wrap;html=1;fillColor=#ffcc99;strokeColor=none;" vertex="1" parent="WIyWlLk6GJQsqaUBKTNV-1">
          <mxGeometry x="97.5" y="620" width="60" height="40" as="geometry" />
        </mxCell>
        <mxCell id="Sh9JLWuEMGVaoRUnbIIQ-131" value="&lt;font face=&quot;Times New Roman&quot;&gt;status&lt;/font&gt;" style="ellipse;whiteSpace=wrap;html=1;fillColor=#ffcc99;strokeColor=none;" vertex="1" parent="WIyWlLk6GJQsqaUBKTNV-1">
          <mxGeometry x="97.5" y="570" width="60" height="40" as="geometry" />
        </mxCell>
        <mxCell id="Sh9JLWuEMGVaoRUnbIIQ-132" value="&lt;font face=&quot;Times New Roman&quot;&gt;ID&lt;/font&gt;" style="ellipse;whiteSpace=wrap;html=1;fillColor=#ffcc99;strokeColor=none;" vertex="1" parent="WIyWlLk6GJQsqaUBKTNV-1">
          <mxGeometry x="97.5" y="520" width="60" height="40" as="geometry" />
        </mxCell>
        <mxCell id="Sh9JLWuEMGVaoRUnbIIQ-136" value="&lt;font face=&quot;Times New Roman&quot;&gt;order_id&lt;br&gt;&lt;/font&gt;" style="ellipse;whiteSpace=wrap;html=1;fillColor=#ffcc99;strokeColor=none;" vertex="1" parent="WIyWlLk6GJQsqaUBKTNV-1">
          <mxGeometry x="320" y="780" width="60" height="40" as="geometry" />
        </mxCell>
        <mxCell id="Sh9JLWuEMGVaoRUnbIIQ-137" value="&lt;font face=&quot;Times New Roman&quot;&gt;variant_id&lt;br&gt;&lt;/font&gt;" style="ellipse;whiteSpace=wrap;html=1;fillColor=#ffcc99;strokeColor=none;" vertex="1" parent="WIyWlLk6GJQsqaUBKTNV-1">
          <mxGeometry x="395" y="780" width="60" height="40" as="geometry" />
        </mxCell>
        <mxCell id="Sh9JLWuEMGVaoRUnbIIQ-138" value="&lt;font face=&quot;Times New Roman&quot;&gt;quantity&lt;br&gt;&lt;/font&gt;" style="ellipse;whiteSpace=wrap;html=1;fillColor=#ffcc99;strokeColor=none;" vertex="1" parent="WIyWlLk6GJQsqaUBKTNV-1">
          <mxGeometry x="470" y="780" width="60" height="40" as="geometry" />
        </mxCell>
        <mxCell id="Sh9JLWuEMGVaoRUnbIIQ-139" value="&lt;font face=&quot;Times New Roman&quot;&gt;price&lt;br&gt;&lt;/font&gt;" style="ellipse;whiteSpace=wrap;html=1;fillColor=#ffcc99;strokeColor=none;" vertex="1" parent="WIyWlLk6GJQsqaUBKTNV-1">
          <mxGeometry x="550" y="780" width="60" height="40" as="geometry" />
        </mxCell>
        <mxCell id="Sh9JLWuEMGVaoRUnbIIQ-144" value="1" style="text;html=1;align=center;verticalAlign=middle;resizable=0;points=[];autosize=1;strokeColor=none;fillColor=none;" vertex="1" parent="WIyWlLk6GJQsqaUBKTNV-1">
          <mxGeometry x="220" y="570" width="30" height="30" as="geometry" />
        </mxCell>
        <mxCell id="Sh9JLWuEMGVaoRUnbIIQ-145" value="N" style="text;html=1;align=center;verticalAlign=middle;resizable=0;points=[];autosize=1;strokeColor=none;fillColor=none;" vertex="1" parent="WIyWlLk6GJQsqaUBKTNV-1">
          <mxGeometry x="220" y="660" width="30" height="30" as="geometry" />
        </mxCell>
        <mxCell id="Sh9JLWuEMGVaoRUnbIIQ-156" style="edgeStyle=orthogonalEdgeStyle;rounded=0;orthogonalLoop=1;jettySize=auto;html=1;entryX=0.5;entryY=0;entryDx=0;entryDy=0;" edge="1" parent="WIyWlLk6GJQsqaUBKTNV-1" source="Sh9JLWuEMGVaoRUnbIIQ-146" target="Sh9JLWuEMGVaoRUnbIIQ-155">
          <mxGeometry relative="1" as="geometry" />
        </mxCell>
        <mxCell id="Sh9JLWuEMGVaoRUnbIIQ-158" style="edgeStyle=orthogonalEdgeStyle;rounded=0;orthogonalLoop=1;jettySize=auto;html=1;entryX=0.5;entryY=0;entryDx=0;entryDy=0;" edge="1" parent="WIyWlLk6GJQsqaUBKTNV-1" source="Sh9JLWuEMGVaoRUnbIIQ-146" target="Sh9JLWuEMGVaoRUnbIIQ-154">
          <mxGeometry relative="1" as="geometry" />
        </mxCell>
        <mxCell id="Sh9JLWuEMGVaoRUnbIIQ-159" style="edgeStyle=orthogonalEdgeStyle;rounded=0;orthogonalLoop=1;jettySize=auto;html=1;entryX=0.5;entryY=0;entryDx=0;entryDy=0;exitX=0.5;exitY=1;exitDx=0;exitDy=0;" edge="1" parent="WIyWlLk6GJQsqaUBKTNV-1" source="Sh9JLWuEMGVaoRUnbIIQ-146" target="Sh9JLWuEMGVaoRUnbIIQ-153">
          <mxGeometry relative="1" as="geometry" />
        </mxCell>
        <mxCell id="Sh9JLWuEMGVaoRUnbIIQ-146" value="&lt;font face=&quot;Times New Roman&quot;&gt;Payment&lt;br&gt;&lt;/font&gt;" style="rounded=0;whiteSpace=wrap;html=1;fillColor=#cdeb8b;strokeColor=none;" vertex="1" parent="WIyWlLk6GJQsqaUBKTNV-1">
          <mxGeometry x="490" y="510" width="120" height="60" as="geometry" />
        </mxCell>
        <mxCell id="Sh9JLWuEMGVaoRUnbIIQ-147" value="has" style="rhombus;whiteSpace=wrap;html=1;fillColor=#ffff88;strokeColor=none;" vertex="1" parent="WIyWlLk6GJQsqaUBKTNV-1">
          <mxGeometry x="380" y="517.5" width="45" height="45" as="geometry" />
        </mxCell>
        <mxCell id="Sh9JLWuEMGVaoRUnbIIQ-149" value="" style="endArrow=none;html=1;rounded=0;exitX=0;exitY=0.5;exitDx=0;exitDy=0;entryX=1;entryY=0.5;entryDx=0;entryDy=0;" edge="1" parent="WIyWlLk6GJQsqaUBKTNV-1" source="Sh9JLWuEMGVaoRUnbIIQ-146" target="Sh9JLWuEMGVaoRUnbIIQ-147">
          <mxGeometry width="50" height="50" relative="1" as="geometry">
            <mxPoint x="80" y="565" as="sourcePoint" />
            <mxPoint x="80" y="930" as="targetPoint" />
          </mxGeometry>
        </mxCell>
        <mxCell id="Sh9JLWuEMGVaoRUnbIIQ-150" value="" style="endArrow=none;html=1;rounded=0;exitX=0;exitY=0.5;exitDx=0;exitDy=0;entryX=1;entryY=0.5;entryDx=0;entryDy=0;" edge="1" parent="WIyWlLk6GJQsqaUBKTNV-1" source="Sh9JLWuEMGVaoRUnbIIQ-147" target="Sh9JLWuEMGVaoRUnbIIQ-126">
          <mxGeometry width="50" height="50" relative="1" as="geometry">
            <mxPoint x="500" y="548" as="sourcePoint" />
            <mxPoint x="435" y="548" as="targetPoint" />
          </mxGeometry>
        </mxCell>
        <mxCell id="Sh9JLWuEMGVaoRUnbIIQ-151" value="1" style="text;html=1;align=center;verticalAlign=middle;resizable=0;points=[];autosize=1;strokeColor=none;fillColor=none;" vertex="1" parent="WIyWlLk6GJQsqaUBKTNV-1">
          <mxGeometry x="310" y="510" width="30" height="30" as="geometry" />
        </mxCell>
        <mxCell id="Sh9JLWuEMGVaoRUnbIIQ-152" value="N" style="text;html=1;align=center;verticalAlign=middle;resizable=0;points=[];autosize=1;strokeColor=none;fillColor=none;" vertex="1" parent="WIyWlLk6GJQsqaUBKTNV-1">
          <mxGeometry x="460" y="510" width="30" height="30" as="geometry" />
        </mxCell>
        <mxCell id="Sh9JLWuEMGVaoRUnbIIQ-153" value="&lt;font face=&quot;Times New Roman&quot;&gt;amount&lt;br&gt;&lt;/font&gt;" style="ellipse;whiteSpace=wrap;html=1;fillColor=#ffcc99;strokeColor=none;" vertex="1" parent="WIyWlLk6GJQsqaUBKTNV-1">
          <mxGeometry x="600" y="620" width="60" height="40" as="geometry" />
        </mxCell>
        <mxCell id="Sh9JLWuEMGVaoRUnbIIQ-154" value="&lt;font face=&quot;Times New Roman&quot;&gt;status&lt;br&gt;&lt;/font&gt;" style="ellipse;whiteSpace=wrap;html=1;fillColor=#ffcc99;strokeColor=none;" vertex="1" parent="WIyWlLk6GJQsqaUBKTNV-1">
          <mxGeometry x="520" y="620" width="60" height="40" as="geometry" />
        </mxCell>
        <mxCell id="Sh9JLWuEMGVaoRUnbIIQ-155" value="&lt;font face=&quot;Times New Roman&quot;&gt;order_id&lt;br&gt;&lt;/font&gt;" style="ellipse;whiteSpace=wrap;html=1;fillColor=#ffcc99;strokeColor=none;" vertex="1" parent="WIyWlLk6GJQsqaUBKTNV-1">
          <mxGeometry x="440" y="620" width="60" height="40" as="geometry" />
        </mxCell>
      </root>
    </mxGraphModel>
  </diagram>
</mxfile>
